<svg width="100%" height="100%" viewBox="0 0 16 16" xmlns="http://www.w3.org/2000/svg">
<path fill="#FFFFFF" d="M6.5303 5.31439C6.5303 5.31439 3.62405 6.0925 1.69075 5.97625L3.701 8.11844L0.5 9.05085L4.39175 10.2946L4.90457 10.665C4.90457 10.665 5.07082 11.6473 5.43089 12.1624C5.79095 12.6775 6.63209 13.2066 7.28258 13.5056C7.93306 13.8046 8.773 14.2845 10.0332 13.5624C11.2934 12.8404 11.963 11.8599 11.963 11.8599L13.8993 11.2642L14.9293 9.1889L15.5105 9.51975L14.6803 7.3196L15.6386 5.81903L13.3722 6.44647C13.3722 6.44647 13.0354 3.75177 11.563 2.63315L11.244 2.49115C10.5953 2.20212 9.83716 2.28173 9.2678 2.6976C8.83816 3.01148 8.29559 3.28534 8.2452 3.14751C8.24461 3.14588 8.24385 3.14317 8.24294 3.13944C8.19735 2.95449 8.15773 2.81913 8.12395 2.7228C8.12295 2.71993 8.12196 2.71708 8.12097 2.71429C8.11788 2.70555 8.11483 2.69732 8.11183 2.68958C8.10991 2.68464 8.10802 2.67991 8.10614 2.67537C8.10372 2.6695 8.10135 2.66396 8.099 2.6587C8.09613 2.65228 8.09331 2.64627 8.09053 2.64062C8.08884 2.63717 8.08716 2.63387 8.0855 2.6307C8.08297 2.62589 8.08048 2.62135 8.07802 2.61707C8.07653 2.61447 8.07506 2.61196 8.07359 2.60957C8.07165 2.60641 8.06973 2.60345 8.06783 2.60067C8.06642 2.5986 8.06502 2.59662 8.06364 2.59475C8.06257 2.59329 8.0615 2.59189 8.06044 2.59056C7.99085 2.50322 7.8797 2.3776 7.72699 2.25251C7.04698 1.69565 5.53987 1.25401 3.74262 2.25251C1.54177 3.47456 0.941322 6.07544 0.941322 6.07544C0.941322 6.07544 2.96487 5.68083 4.35456 5.35554"/>
<path fill="#000000" d="M13.6988 6.46381C13.6988 6.46381 13.3282 3.49982 11.7088 2.26963C11.7088 2.26963 10.454 1.56434 9.01295 2.61791C8.72622 2.82765 8.36531 3.18425 8.22352 3.18576C8.21278 3.18588 8.15811 3.01146 8.12395 2.72284C8.08441 2.38879 7.47018 1.70111 6.9343 1.26226C6.12984 0.603774 4.29078 0.330367 2.37672 2.26963C0.556273 4.11451 0.5 7.81666 0.5 7.81666C0.5 7.81666 3.51795 7.81469 5.13036 7.25313L4.09164 8.63579L6.18581 7.65072L6.19526 7.75353L6.61534 8.28489L6.89569 7.56099L7.39276 7.59115L7.46408 7.28831L7.92845 7.28569L8.15961 7.86057L8.6346 7.35652L8.95065 7.36418L9.17939 7.90608L9.6862 7.34667L9.95113 7.31649L10.2679 8.28489L10.5956 7.75616C10.5956 7.75616 11.1438 7.93747 11.8673 7.87665C12.5908 7.81583 13.3876 7.54495 13.3876 7.54495L12.495 8.78972L14.9112 7.65384L14.3288 9.39753L15.5 8.70334L14.3932 6.76956L15.1275 5.61981L13.6988 6.46381Z"/>
<ellipse fill="#FFFFFF" cx="5.30798" cy="4.54595" rx="1.16812" ry="1.01512"/>
<ellipse fill="#FFFFFF" cx="10.2608" cy="4.54595" rx="1.16812" ry="1.01512"/>
<ellipse fill="#000000" cx="5.29634" cy="4.55757" rx="0.427335" ry="0.3814"/>
<ellipse fill="#000000" cx="10.2492" cy="4.55757" rx="0.427335" ry="0.3814"/>
<path fill="#FFFFFF" d="M6.95215 9.92989V9.05079H8.22479V9.92989H9.4507V10.5048H8.22479V11.3901H6.95215V10.5048H5.72623V9.92989H6.95215Z"/>
</svg>
